<?xml version="1.0" encoding="UTF-8"?>
<!DOCTYPE svg PUBLIC "-//W3C//DTD SVG 1.1//EN" "http://www.w3.org/Graphics/SVG/1.1/DTD/svg11.dtd">
<!-- Creator: CorelDRAW -->
<svg xmlns="http://www.w3.org/2000/svg" xml:space="preserve" width="500px" height="500px" version="1.1" shape-rendering="geometricPrecision" text-rendering="geometricPrecision" image-rendering="optimizeQuality" fill-rule="evenodd" clip-rule="evenodd"
viewBox="0 0 498.06 498.06"
 xmlns:xlink="http://www.w3.org/1999/xlink"
 xmlns:xodm="http://www.corel.com/coreldraw/odm/2003">
 <g id="Camada_x0020_1">
  <metadata id="CorelCorpID_0Corel-Layer"/>
  <circle fill="#111111" cx="249.03" cy="249.03" r="249.03"/>
  <g id="_1514582400144">
   <path fill="white" fill-rule="nonzero" d="M203.03 368.85c8,4.57 10.77,14.77 6.19,22.77 -4.57,8 -14.77,10.77 -22.77,6.2 -19.33,-11.1 -34.97,-26.96 -45.78,-45.63 -10.82,-18.69 -16.8,-40.15 -16.8,-62.4 0,-34.39 13.94,-65.53 36.48,-88.07 22.54,-22.54 53.69,-36.49 88.08,-36.49 34.39,0 65.53,13.95 88.07,36.49 22.55,22.54 36.49,53.68 36.49,88.07 0,23.47 -6.61,45.96 -18.45,65.23 -11.82,19.22 -28.91,35.26 -49.91,45.89 -8.22,4.14 -18.24,0.84 -22.38,-7.38 -4.15,-8.21 -0.84,-18.24 7.37,-22.38 15.29,-7.74 27.78,-19.49 36.46,-33.62 8.67,-14.09 13.5,-30.54 13.5,-47.74 0,-25.17 -10.21,-47.96 -26.7,-64.45 -16.49,-16.49 -39.28,-26.69 -64.45,-26.69 -25.17,0 -47.96,10.2 -64.45,26.69 -16.5,16.49 -26.7,39.28 -26.7,64.45 0,16.38 4.36,32.08 12.23,45.69 7.9,13.63 19.34,25.23 33.52,33.37z"/>
   <path fill="red" d="M241.38 52.08l0 0c9.01,0 16.37,7.37 16.37,16.37l0 50.02c0,9.01 -7.36,16.37 -16.37,16.37l0 0c-9,0 -16.37,-7.36 -16.37,-16.37l0 -50.02c0,-9 7.37,-16.37 16.37,-16.37zm148.33 211.75l0 0c0,-9.01 7.37,-16.37 16.37,-16.37l50.02 0c9.01,0 16.37,7.36 16.37,16.37l0 0c0,9 -7.36,16.37 -16.37,16.37l-50.02 0c-9,0 -16.37,-7.37 -16.37,-16.37zm1.22 -148.8l0 0c-6.37,-6.36 -16.79,-6.36 -23.15,0l-35.37 35.37c-6.37,6.37 -6.37,16.79 0,23.15l0 0.01c6.36,6.36 16.78,6.36 23.15,-0.01l35.37 -35.37c6.36,-6.36 6.36,-16.78 0,-23.15zm-298.2 0l0 0c6.37,-6.36 16.79,-6.36 23.15,0l35.37 35.37c6.37,6.37 6.37,16.79 0,23.15l0 0.01c-6.36,6.36 -16.78,6.36 -23.15,-0.01l-35.37 -35.37c-6.36,-6.36 -6.36,-16.78 0,-23.15zm-67.15 148.8l0 0c0,-9.01 7.37,-16.37 16.37,-16.37l50.02 0c9.01,0 16.37,7.36 16.37,16.37l0 0c0,9 -7.36,16.37 -16.37,16.37l-50.02 0c-9,0 -16.37,-7.37 -16.37,-16.37z"/>
  </g>
 </g>
</svg>
