<?xml version="1.0" encoding="UTF-8"?>
<!DOCTYPE svg PUBLIC "-//W3C//DTD SVG 1.1//EN" "http://www.w3.org/Graphics/SVG/1.1/DTD/svg11.dtd">
<!-- Creator: CorelDRAW -->
<svg xmlns="http://www.w3.org/2000/svg" xml:space="preserve" width="4850px" height="3805px" version="1.1" shape-rendering="geometricPrecision" text-rendering="geometricPrecision" image-rendering="optimizeQuality" fill-rule="evenodd" clip-rule="evenodd"
viewBox="0 0 4847.66 3803.01"
 xmlns:xlink="http://www.w3.org/1999/xlink"
 xmlns:xodm="http://www.corel.com/coreldraw/odm/2003">
 <g id="Camada_x0020_1">
  <metadata id="CorelCorpID_0Corel-Layer"/>
  <path fill="black" fill-rule="nonzero" d="M1931.54 3435.85c86.77,49.63 116.87,160.24 67.24,247.01 -49.63,86.78 -160.24,116.88 -247.02,67.25 -209.65,-120.36 -379.28,-292.41 -496.54,-494.95 -117.41,-202.74 -182.25,-435.41 -182.25,-676.78 0,-373.07 151.23,-710.84 395.72,-955.33 244.5,-244.49 582.27,-395.73 955.33,-395.73 373.07,0 710.84,151.24 955.33,395.73 244.51,244.51 395.73,582.26 395.73,955.33 0,254.6 -71.66,498.48 -200.15,707.48 -128.17,208.55 -313.56,382.49 -541.3,497.74 -89.12,44.95 -197.83,9.14 -242.78,-79.98 -44.95,-89.12 -9.14,-197.83 79.98,-242.78 165.8,-83.91 301.29,-211.37 395.51,-364.67 93.93,-152.81 146.34,-331.29 146.34,-517.79 0,-273.03 -110.66,-520.21 -289.56,-699.11 -178.89,-178.88 -426.06,-289.54 -699.1,-289.54 -273.02,0 -520.2,110.66 -699.1,289.54 -178.89,178.9 -289.55,426.09 -289.55,699.11 0,177.63 47.22,347.98 132.69,495.59 85.6,147.84 209.76,273.63 363.48,361.88z"/>
  <g id="_2146572801344">
   <path fill="red" d="M3963.16 682.83l-0.01 0c-69.06,-69.06 -182.03,-69.06 -251.09,0l-383.65 383.65c-69.06,69.06 -69.06,182.03 0,251.09l0 0.01c69.05,69.05 182.04,69.05 251.09,-0.01l383.66 -383.65c69.05,-69.05 69.05,-182.04 0,-251.09z"/>
   <path fill="red" d="M3949.98 2296.75l0 -0.01c0,-97.66 79.9,-177.54 177.55,-177.54l542.58 0c97.66,0 177.55,79.88 177.55,177.54l0 0.01c0,97.66 -79.89,177.54 -177.55,177.54l-542.58 0c-97.65,0 -177.55,-79.88 -177.55,-177.54z"/>
  </g>
  <path fill="red" d="M2424.02 0l0.01 0c97.67,0 177.54,79.89 177.54,177.54l0 542.59c0,97.65 -79.87,177.54 -177.54,177.54l-0.01 0c-97.64,0 -177.54,-79.89 -177.54,-177.54l0 -542.59c0,-97.65 79.9,-177.54 177.54,-177.54z"/>
  <g id="_2146572806000">
   <path fill="red" d="M884.5 680.93l0.01 0c69.06,-69.06 182.03,-69.06 251.09,0l383.66 383.66c69.05,69.05 69.05,182.03 0,251.09l0 0.01c-69.06,69.04 -182.05,69.04 -251.09,-0.01l-383.67 -383.66c-69.05,-69.05 -69.05,-182.03 0,-251.09z"/>
   <path fill="red" d="M897.68 2294.85l0 -0.01c0,-97.65 -79.9,-177.54 -177.55,-177.54l-542.58 0c-97.65,0 -177.55,79.89 -177.55,177.54l0 0.01c0,97.66 79.9,177.54 177.55,177.54l542.58 0c97.65,0 177.55,-79.88 177.55,-177.54z"/>
  </g>
 </g>
</svg>
