<?xml version="1.0" encoding="UTF-8"?>
<!DOCTYPE svg PUBLIC "-//W3C//DTD SVG 1.1//EN" "http://www.w3.org/Graphics/SVG/1.1/DTD/svg11.dtd">
<!-- Creator: CorelDRAW -->
<svg xmlns="http://www.w3.org/2000/svg" xml:space="preserve" width="1000px" height="504px" version="1.1" shape-rendering="geometricPrecision" text-rendering="geometricPrecision" image-rendering="optimizeQuality" fill-rule="evenodd" clip-rule="evenodd"
viewBox="0 0 72.81 36.67"
 xmlns:xlink="http://www.w3.org/1999/xlink"
 xmlns:xodm="http://www.corel.com/coreldraw/odm/2003">
 <g id="Camada_x0020_1">
  <metadata id="CorelCorpID_0Corel-Layer"/>
  <path fill="#111111" d="M8.24 26.97l-3.77 0c-0.85,0 -1.54,-0.69 -1.54,-1.54l0 -14.87c0,-0.28 0.22,-0.51 0.5,-0.51l1.95 0c1.57,0 2.86,1.29 2.86,2.87l0 14.05zm-4 -19.4c0.19,0.11 0.26,0.36 0.15,0.55 -0.11,0.19 -0.35,0.26 -0.54,0.15 -0.47,-0.27 -0.84,-0.65 -1.1,-1.09 -0.26,-0.45 -0.4,-0.96 -0.4,-1.5 0,-0.82 0.33,-1.56 0.87,-2.1 0.54,-0.54 1.29,-0.87 2.11,-0.87 0.82,0 1.56,0.33 2.1,0.87 0.54,0.54 0.88,1.28 0.88,2.1 0,0.56 -0.16,1.1 -0.44,1.56 -0.29,0.46 -0.7,0.85 -1.2,1.1 -0.19,0.1 -0.43,0.02 -0.53,-0.18 -0.1,-0.19 -0.02,-0.43 0.17,-0.53 0.37,-0.19 0.67,-0.47 0.87,-0.81 0.21,-0.33 0.33,-0.73 0.33,-1.14 0,-0.6 -0.25,-1.14 -0.64,-1.54 -0.4,-0.39 -0.94,-0.64 -1.54,-0.64 -0.6,0 -1.15,0.25 -1.54,0.64 -0.4,0.4 -0.64,0.94 -0.64,1.54 0,0.4 0.1,0.77 0.29,1.1 0.19,0.32 0.46,0.6 0.8,0.79z"/>
  <path fill="#111111" fill-rule="nonzero" d="M23.19 11.65c-1.01,-0.87 -2.38,-1.34 -4.19,-1.34 -5.37,0 -8.21,3.56 -8.21,8.85 0,5.56 2.91,8.88 9.28,8.88 5.16,0 8.48,-3.45 8.48,-7.17l0 -15.78c0,-1.61 -1.04,-2.65 -2.65,-2.65 -1.64,0 -2.71,1.04 -2.71,2.65l0 6.56zm-6.87 7.54c0,-2.64 1.34,-4.35 3.45,-4.35 2.08,0 3.42,1.71 3.42,4.35 0,2.35 -1.34,4.36 -3.42,4.36 -2.11,0 -3.45,-1.78 -3.45,-4.36z"/>
  <path fill="#111111" fill-rule="nonzero" d="M43.06 20.84c2.25,0 3.82,-1.14 3.82,-3.15 0,-4.13 -2.81,-7.38 -8.07,-7.38 -5.3,0 -8.85,3.56 -8.85,8.85 0,5.36 3.55,8.41 8.85,8.41l5.46 0c1.31,0 2.14,-0.84 2.14,-2.14 0,-1.34 -0.83,-2.21 -2.14,-2.21l-5.46 0c-1.51,0 -2.68,-0.84 -3.12,-2.38l7.37 0zm-7.5 -3.36c0.26,-1.67 1.27,-2.64 2.91,-2.64 1.71,0 2.72,1 3.02,2.64l-5.93 0z"/>
  <path fill="#111111" fill-rule="nonzero" d="M70.1 27.57c1.64,0 2.71,-0.94 2.71,-2.55l0 -8.27c0,-3.96 -2.71,-6.4 -8.58,-6.4 -4.99,0 -8.85,3.31 -8.85,8.81 0,5.36 3.56,8.41 7.14,8.41l7.58 0zm-9.19 -8.38c0,-2.64 1.28,-4.35 3.29,-4.35 1.97,0 3.25,1.71 3.25,4.35l0 3.86 -3.25 0c-2.01,0 -3.29,-1.28 -3.29,-3.86z"/>
  <path fill="#111111" d="M54.05 26.97l-3.78 0c-0.84,0 -1.54,-0.69 -1.54,-1.54l0 -14.87c0,-0.28 0.23,-0.51 0.51,-0.51l1.95 0c1.57,0 2.86,1.29 2.86,2.87l0 14.05z"/>
  <path fill="#111111" fill-rule="nonzero" d="M8.4 35.01c-0.52,-0.24 -0.53,-0.27 -1.08,-0.55 -0.29,0.55 -0.85,0.89 -1.49,0.89 -0.94,0 -1.7,-0.76 -1.7,-1.7 0,-0.93 0.76,-1.7 1.7,-1.7 0.62,0 1.16,0.34 1.44,0.83 0.55,-0.27 0.59,-0.29 1.08,-0.55 -0.49,-0.87 -1.42,-1.48 -2.52,-1.48 -1.6,0 -2.9,1.31 -2.9,2.9 0,1.6 1.3,2.9 2.9,2.9 1.13,0 2.08,-0.62 2.57,-1.54z"/>
  <path fill="#111111" fill-rule="nonzero" d="M12.72 36.54l0.6 -1.27 2.9 0 0.56 1.27 1.22 0 -2.56 -5.73 -1.27 0 -2.6 5.73 1.15 0zm2.11 -4.65l0.93 2.22 -1.9 0 0.96 -2.22 0.01 0z"/>
  <polygon fill="#111111" fill-rule="nonzero" points="21.17,36.53 22.37,36.53 22.37,32.53 22.38,32.53 23.65,35.09 24.62,35.09 25.9,32.49 25.91,32.49 25.91,36.53 27.09,36.53 27.09,30.81 25.43,30.81 24.13,33.33 22.81,30.81 21.17,30.81 "/>
  <polygon fill="#111111" fill-rule="nonzero" points="30.27,36.54 31.53,36.54 31.53,30.81 30.27,30.81 "/>
  <path fill="#111111" fill-rule="nonzero" d="M34.71 34.64c0,1.41 1.15,2.03 2.43,2.03 1.57,0 2.38,-0.78 2.38,-1.83 0,-1.3 -1.27,-1.56 -1.7,-1.66 -1.43,-0.35 -1.7,-0.45 -1.7,-0.87 0,-0.48 0.46,-0.65 0.86,-0.65 0.4,0 0.98,0.03 1.13,0.69l1.22 0.18c0,-1.32 -1.1,-1.85 -2.29,-1.85 -1.04,0 -2.14,0.56 -2.14,1.74 0,2.13 3.41,1.35 3.41,2.56 0,0.59 -0.68,0.72 -1.12,0.72 -0.46,0 -1.14,-0.11 -1.27,-0.86l-1.21 -0.2z"/>
  <polygon fill="#111111" fill-rule="nonzero" points="46.53,34.25 46.53,33.14 43.92,33.14 43.92,31.85 46.88,31.85 46.88,30.79 42.7,30.79 42.7,36.54 47.15,36.54 47.15,35.48 43.92,35.48 43.92,34.25 "/>
  <polygon fill="#111111" fill-rule="nonzero" points="52.15,36.54 53.41,36.54 53.41,31.87 55.21,31.87 55.21,30.81 50.33,30.81 50.33,31.86 52.15,31.86 "/>
  <path fill="#111111" fill-rule="nonzero" d="M59.54 36.54l0.6 -1.27 2.89 0 0.56 1.27 1.22 0 -2.55 -5.73 -1.27 0 -2.6 5.73 1.15 0zm2.11 -4.65l0.93 2.22 -1.9 0 0.96 -2.22 0.01 0z"/>
  <path fill="#111111" fill-rule="nonzero" d="M67.99 34.64c0,1.41 1.16,2.03 2.44,2.03 1.56,0 2.38,-0.78 2.38,-1.83 0,-1.3 -1.28,-1.56 -1.7,-1.66 -1.44,-0.35 -1.71,-0.45 -1.71,-0.87 0,-0.48 0.47,-0.65 0.87,-0.65 0.39,0 0.98,0.03 1.13,0.69l1.22 0.18c0,-1.32 -1.1,-1.85 -2.3,-1.85 -1.03,0 -2.14,0.56 -2.14,1.74 0,2.13 3.41,1.35 3.41,2.56 0,0.59 -0.67,0.72 -1.11,0.72 -0.47,0 -1.14,-0.11 -1.27,-0.86l-1.22 -0.2z"/>
  <path fill="red" d="M5.16 0l0 0c0.21,0 0.39,0.18 0.39,0.39l0 1.2c0,0.21 -0.18,0.39 -0.39,0.39l0 0c-0.22,0 -0.39,-0.18 -0.39,-0.39l0 -1.2c0,-0.21 0.17,-0.39 0.39,-0.39zm3.55 5.06l0 0c0,-0.21 0.17,-0.39 0.39,-0.39l1.19 0c0.22,0 0.39,0.18 0.39,0.39l0 0c0,0.22 -0.17,0.39 -0.39,0.39l-1.19 0c-0.22,0 -0.39,-0.17 -0.39,-0.39zm0.03 -3.55l0 0c-0.16,-0.16 -0.41,-0.16 -0.56,0l-0.84 0.84c-0.16,0.15 -0.16,0.4 0,0.55l0 0c0.15,0.16 0.4,0.16 0.55,0l0.85 -0.84c0.15,-0.15 0.15,-0.4 0,-0.55zm-7.13 0l0 0c0.15,-0.16 0.4,-0.16 0.55,0l0.84 0.84c0.16,0.15 0.16,0.4 0,0.55l0 0c-0.15,0.16 -0.4,0.16 -0.55,0l-0.84 -0.84c-0.16,-0.15 -0.16,-0.4 0,-0.55zm-1.61 3.55l0 0c0,-0.21 0.18,-0.39 0.39,-0.39l1.2 0c0.21,0 0.39,0.18 0.39,0.39l0 0c0,0.22 -0.18,0.39 -0.39,0.39l-1.2 0c-0.21,0 -0.39,-0.17 -0.39,-0.39z"/>
 </g>
</svg>
